<svg fill="none" height="512" viewBox="0 0 512 512" width="512" xmlns="http://www.w3.org/2000/svg" xmlns:xlink="http://www.w3.org/1999/xlink"><clipPath id="a"><path d="m0 0h512v512h-512z"/></clipPath><g clip-path="url(#a)" fill="#007a56"><path d="m393.844 0c65.254-.00000078 118.154 52.8993 118.154 118.154 0 65.254-52.9 118.154-118.154 118.154h-118.154v-118.154c0-65.2547 52.899-118.15399922 118.154-118.154z" opacity=".5"/><path d="m0 118.154c0-65.2547 52.8993-118.154 118.154-118.154 65.254 0 118.154 52.8993 118.154 118.154v118.154h-118.154c-65.2547 0-118.154-52.9-118.154-118.154z"/><path d="m118.154 512c-65.2547 0-118.15400078-52.899-118.154-118.154.00000078-65.254 52.8993-118.154 118.154-118.154h118.154v118.154c0 65.255-52.9 118.154-118.154 118.154z"/><path d="m512 393.846c0 65.255-52.899 118.154-118.154 118.154-65.254 0-118.154-52.899-118.154-118.154v-118.154h118.154c65.255 0 118.154 52.9 118.154 118.154z"/></g></svg>